PathFileType	4	(X/Y/Z)	S01_0010_Gait_markers.trc
DataRate	CameraRate	NumFrames	NumMarkers	Units	OrigDataRate	OrigDataStartFrame	OrigNumFrames
250.000000	250.000000	4	54	mm	250.000000	265	354
Frame#	Time	HEAD_ANT			R_HEAD			L_HEAD			C7			R_BACK			L_BACK			STERNUM			R_ACROMION			R_HUM_PROX			R_HUM_ANT			R_HUM_POST			R_ELBOW_LAT			R_ELBOW_MED			R_FOREARM			R_WIRST_LAT			R_WRITS_MED			R_HAND			L_ACROMION			L_HUM_PROX			L_HUM_ANT			L_HUM_POST			L_ELBOW_LAT			L_ELBOW_MED			L_FOREARM			L_WRIST_LAT			L_WIRST_MED			L_HAND			R_ILIAC			SACRUM			L_ILIAC			R_GTROCH			R_THIGH__1			R_THIGH_2			R_THIGH_3			R_THIGH_4			R_SHANK_1			R_SHANK_2			R_SHANK_3			R_SHANK_4			R_HEEL			R_FOOT_LAT			R_FOOT_MED			L_GTROCH			L_THIGH_1			L_THIGH_2			L_THIGH_3			L_THIGH_4			L_SHANK_1			L_SHANK_2			L_SHANK_3			L_SHANK_4			L_HEEL			L_FOOT_LAT			L_FOOT_MED			
		X1	Y1	Z1	X2	Y2	Z2	X3	Y3	Z3	X4	Y4	Z4	X5	Y5	Z5	X6	Y6	Z6	X7	Y7	Z7	X8	Y8	Z8	X9	Y9	Z9	X10	Y10	Z10	X11	Y11	Z11	X12	Y12	Z12	X13	Y13	Z13	X14	Y14	Z14	X15	Y15	Z15	X16	Y16	Z16	X17	Y17	Z17	X18	Y18	Z18	X19	Y19	Z19	X20	Y20	Z20	X21	Y21	Z21	X22	Y22	Z22	X23	Y23	Z23	X24	Y24	Z24	X25	Y25	Z25	X26	Y26	Z26	X27	Y27	Z27	X28	Y28	Z28	X29	Y29	Z29	X30	Y30	Z30	X31	Y31	Z31	X32	Y32	Z32	X33	Y33	Z33	X34	Y34	Z34	X35	Y35	Z35	X36	Y36	Z36	X37	Y37	Z37	X38	Y38	Z38	X39	Y39	Z39	X40	Y40	Z40	X41	Y41	Z41	X42	Y42	Z42	X43	Y43	Z43	X44	Y44	Z44	X45	Y45	Z45	X46	Y46	Z46	X47	Y47	Z47	X48	Y48	Z48	X49	Y49	Z49	X50	Y50	Z50	X51	Y51	Z51	X52	Y52	Z52	X53	Y53	Z53	X54	Y54	Z54	

266	1.06	1613.897705078125	1726.206665039062	-323.2471313476559	1553.938110351562	1673.866455078125	-245.7971038818356	1551.250854492188	1682.738891601562	-393.6281433105465	1410.280883789062	1512.229125976562	-330.4400024414059	1331.810546875	1315.120239257812	-264.6656799316403	1338.714477539062	1318.445556640625	-405.4801940917966	1587.627685546875	1348.073364257812	-320.939758300781	1478.656494140625	1464.546875	-153.9009399414059	1422.13330078125	1310.9951171875	-61.26995849609346	1475.32421875	1221.0576171875	-47.5978813171384	1354.668090820312	1233.497924804688	-52.72843170165988	1395.397338867188	1122.996826171875	-34.25793838500952	1376.400268554688	1117.168701171875	-116.554862976074	1499.955444335938	940.9559936523438	-29.35425376892069	1542.582397460938	877.5592041015625	-66.38669586181621	1473.867919921875	851.08056640625	-33.20992279052715	1545.967407226562	791.0918579101562	-10.82312011718732	1499.238037109375	1463.423217773438	-491.6090087890622	1493.754028320312	1298.181640625	-590.2119750976559	1560.2685546875	1222.401611328125	-583.1893920898435	1443.47607421875	1217.831298828125	-622.909240722656	1511.31298828125	1118.071166992188	-625.7593994140623	1453.273803710938	1104.998168945313	-574.4296264648435	1645.340209960938	969.4171752929689	-573.5842285156248	1678.43408203125	921.3608398437501	-512.6156005859373	1652.129150390625	884.2700805664064	-577.2061767578123	1734.437255859375	848.1948242187501	-542.0537109374998	1491.056640625	1066.81982421875	-150.3128967285154	1360.288452148438	1037.626220703125	-315.0268249511716	1482.119262695312	1057.709228515625	-494.8158264160154	1456.573852539062	912.6744384765625	-132.6585998535154	1575.088623046875	644.4701538085938	-152.7918548583983	1623.873413085938	677.3034057617188	-148.5000610351561	1658.774047851562	580.9776000976562	-181.867721557617	1597.34375	568.1538696289062	-173.4423980712889	1654.6943359375	352.2935485839844	-167.8200683593749	1714.0205078125	349.5555725097657	-181.6962280273437	1735.75390625	267.7073364257813	-199.0131072998046	1673.02490234375	253.820541381836	-188.9365692138671	1706.1806640625	40.60342025756842	-275.076171875	1866.898315429688	60.47783660888676	-188.1306915283203	1910.405151367188	96.42637634277349	-274.9270324707031	1432.800048828125	953.3847656250001	-495.6651916503904	1440.191528320312	660.5672607421876	-474.5570678710936	1393.652709960938	693.6958007812501	-487.0836791992186	1354.877807617188	601.6368408203126	-452.7040405273436	1416.716064453125	586.5556030273439	-448.1717834472655	1301.465942382812	336.2872924804689	-428.6535339355468	1240.98779296875	330.5365295410157	-428.9117431640624	1217.212524414062	248.6597442626954	-407.5475463867187	1280.470581054688	238.9276428222657	-401.7040100097656	1133.87255859375	79.98962402343757	-328.4716796875	1297.444580078125	20.79246711730966	-403.2749938964844	1340.38720703125	27.22575378417976	-299.6583251953125	
267	1.064	1619.888793945312	1724.748657226562	-322.297210693359	1557.96044921875	1672.61279296875	-245.9945373535153	1557.102661132812	1681.45849609375	-393.0971984863277	1415.857666015625	1510.990600585938	-330.1153869628903	1337.489135742188	1313.790649414062	-264.7402343749997	1344.197875976562	1317.369750976562	-405.2809448242185	1593.33447265625	1346.500122070312	-320.6901855468747	1484.293334960938	1463.03564453125	-153.7248077392575	1427.596313476562	1309.422241210938	-61.13286209106416	1480.9365234375	1219.629760742188	-47.472904205322	1360.190673828125	1232.1064453125	-52.75408172607394	1400.895629882812	1121.568481445312	-34.0291252136228	1382.03662109375	1115.658081054688	-116.3315353393552	1505.649291992188	939.4674682617188	-29.23919105529764	1548.472290039062	876.270263671875	-66.26316070556621	1479.48291015625	849.5226440429688	-32.62334823608379	1551.825927734375	789.2572021484375	-11.32649421691877	1504.589477539062	1462.309814453125	-491.4824218749997	1499.658325195312	1297.021362304688	-589.9683227539059	1566.390747070312	1221.32763671875	-582.9744873046873	1449.544799804688	1216.539794921875	-622.7808837890623	1517.8427734375	1116.76904296875	-625.6384277343748	1459.766479492188	1103.636840820313	-574.4385986328123	1652.026977539062	968.6501464843751	-573.3763427734373	1685.20263671875	920.7407226562501	-512.4035034179685	1659.07666015625	883.6176147460939	-576.8647460937498	1741.5126953125	847.8657226562501	-541.6257324218748	1497.03662109375	1065.297241210938	-150.1889190673826	1366.03271484375	1036.417114257812	-314.7962646484373	1487.818725585938	1056.482055664062	-494.7473144531248	1462.576049804688	911.1375732421875	-132.8069152832029	1580.938354492188	642.993408203125	-152.9838104248045	1629.671997070312	675.9267578125	-148.4314880371092	1664.558471679688	579.7406616210938	-182.1988372802733	1603.394287109375	566.7625732421875	-173.6723327636718	1663.679321289062	351.5073242187501	-168.4466552734374	1722.9287109375	349.9510192871094	-181.8161315917968	1746.351440429688	268.0305175781251	-199.7789764404296	1683.722778320312	253.1757354736328	-189.546890258789	1720.393920898438	40.7663650512696	-275.7677917480469	1881.499877929688	63.15251159667973	-189.5819854736328	1923.683837890625	99.56216430664068	-276.6663513183594	1438.066040039062	952.6810302734376	-495.8727722167966	1444.689331054688	660.8609619140626	-474.946563720703	1397.863891601562	693.7788696289064	-487.4795837402342	1358.820068359375	601.1682128906251	-452.9255371093749	1420.489013671875	585.9603271484376	-448.7646484374999	1303.681518554688	336.3570861816407	-428.9263610839843	1243.173461914062	330.7616271972657	-429.1536560058593	1218.79150390625	249.2641906738282	-407.7680053710937	1281.876220703125	238.9918975830079	-401.8085021972656	1134.2431640625	80.97914886474616	-328.6664733886719	1297.458251953125	20.83440589904794	-403.72607421875	1340.31494140625	27.07608795166022	-299.3834838867188	
268	1.068	1625.46875	1723.720581054688	-322.0948791503902	1565.546142578125	1671.093872070312	-244.717620849609	1562.985961914062	1680.339721679688	-392.5576782226559	1421.512329101562	1509.658081054688	-329.8455810546872	1343.177978515625	1312.51806640625	-264.873596191406	1349.67333984375	1315.974731445312	-404.8299560546872	1599.02392578125	1345.142333984375	-320.3975830078122	1489.82666015625	1461.607421875	-153.4876861572262	1433.204833984375	1307.992919921875	-61.02981567382783	1486.562744140625	1218.167724609375	-47.18497848510715	1365.803833007812	1230.5146484375	-52.62906646728489	1406.679077148438	1119.90576171875	-34.02932739257788	1387.739135742188	1114.045532226562	-116.0740509033201	1511.443969726562	938.005126953125	-29.20666122436502	1554.352416992188	874.7581787109375	-66.27776336669902	1485.423461914062	848.0148315429688	-33.54917144775371	1557.368408203125	787.9141235351562	-11.0419206619261	1510.24365234375	1461.097778320312	-491.2391357421872	1505.452026367188	1295.953857421875	-589.7183227539059	1572.489990234375	1220.210327148438	-582.803527832031	1455.5859375	1215.363037109375	-622.688049316406	1524.159790039062	1115.640502929688	-625.5458374023435	1466.018798828125	1102.524291992188	-574.5173339843748	1658.66162109375	967.9228515625001	-573.256408691406	1692.030395507812	920.1624755859376	-511.9701232910154	1665.845703125	882.9104003906251	-576.722229003906	1748.494018554688	847.4677124023439	-541.311340332031	1503.221313476562	1063.710815429688	-150.0890350341795	1372.553588867188	1035.279663085938	-314.355041503906	1493.248779296875	1055.222412109375	-494.8807983398435	1468.70703125	909.7698974609375	-133.0697631835936	1586.991943359375	641.4778442382812	-152.8855133056639	1635.553955078125	674.4868774414062	-148.5796051025389	1670.501708984375	578.4998779296875	-182.5306549072264	1609.419067382812	565.4220581054688	-173.9653930664061	1672.596801757812	350.4985961914063	-168.9459533691405	1731.778686523438	349.9743041992188	-182.3657073974609	1756.5439453125	268.6711730957032	-200.4711151123046	1694.268798828125	252.651611328125	-190.3668670654296	1734.288452148438	41.23028182983405	-276.599609375	1895.606323242188	65.82820892333989	-191.1822204589843	1936.74853515625	102.6223754882813	-278.4917297363281	1443.50146484375	951.7540893554689	-495.8245849609373	1448.612060546875	659.2119140625001	-475.2775268554686	1402.084106445312	692.6652221679689	-487.8707580566405	1362.892333984375	600.7638549804689	-453.213409423828	1424.750854492188	585.3726196289064	-448.6759338378905	1306.02001953125	336.3152465820314	-429.2864074707031	1245.487548828125	331.0958251953126	-429.4233703613281	1220.386962890625	249.697479248047	-407.8361206054687	1283.694580078125	239.1594848632813	-402.3327941894531	1134.642944335938	82.20658874511726	-328.8949890136719	1297.51806640625	20.76414489746103	-404.1537475585938	1340.30908203125	27.06947326660163	-299.372802734375	
269	1.072	1631.23828125	1722.52685546875	-321.4334106445309	1571.185791015625	1669.64697265625	-244.2968292236324	1568.7431640625	1679.21826171875	-392.0012207031246	1427.253540039062	1508.400512695312	-329.5107421874997	1348.752685546875	1311.236694335938	-264.6962585449216	1355.471313476562	1314.9501953125	-404.607238769531	1604.735717773438	1343.711669921875	-320.1679382324216	1495.31494140625	1460.239135742188	-153.1389312744137	1438.787109375	1306.58251953125	-61.06103897094697	1492.230102539062	1216.776489257812	-47.10948562622043	1371.469848632812	1228.991088867188	-52.51028060913059	1412.838623046875	1118.526977539062	-33.92847061157202	1393.65673828125	1112.41259765625	-115.7574539184568	1517.258422851562	936.3780517578125	-29.15248870849588	1560.313110351562	873.3969116210938	-66.26334381103496	1491.326782226562	846.5811767578125	-33.59268569946271	1563.1025390625	786.422119140625	-11.01540470123274	1515.9052734375	1459.851196289062	-491.0499877929684	1511.4189453125	1294.788940429688	-589.4495849609372	1578.488647460938	1219.087768554688	-582.6794433593748	1461.665893554688	1214.209350585938	-622.6102905273435	1530.45849609375	1114.522216796875	-625.4015502929685	1472.086669921875	1101.12255859375	-574.6552734374998	1665.257080078125	967.0937500000001	-572.9181518554685	1698.543579101562	919.4417114257814	-511.7401733398435	1672.6806640625	882.0225830078126	-576.4711914062498	1755.475708007812	847.0180053710939	-540.8981933593748	1509.318603515625	1062.240844726562	-149.9721832275388	1378.341186523438	1034.072631835938	-313.9834899902341	1498.69580078125	1053.868286132812	-494.9998474121091	1474.609130859375	908.275146484375	-133.2542266845701	1592.90966796875	639.9862670898438	-152.7369537353514	1641.518920898438	673.1668090820312	-148.7769165039061	1676.721069335938	577.2625732421875	-182.9824371337889	1615.464233398438	564.1757202148438	-174.2972564697264	1681.193725585938	349.5310974121094	-169.5509490966796	1740.600341796875	350.0721435546876	-183.1204681396484	1766.672607421875	269.1054077148438	-201.0934448242187	1704.617797851562	252.1955261230469	-190.7714385986328	1747.761474609375	41.40163040161139	-277.271728515625	1909.093872070312	68.03673553466801	-192.8189544677734	1949.328002929688	105.6426315307618	-280.15234375	1448.729858398438	950.9832763671876	-495.7723693847654	1452.957397460938	658.5738525390626	-475.4952392578123	1406.568359375	692.1185913085939	-487.7757568359373	1367.120849609375	600.4144287109376	-453.5795288085936	1428.832275390625	584.6123657226564	-449.0363159179686	1308.353515625	336.2795410156251	-428.8356018066406	1247.796875	331.3245849609376	-429.6827392578124	1222.215209960938	250.4547119140626	-408.3041687011718	1285.212036132812	239.324203491211	-402.4574890136718	1135.031127929688	83.41442108154304	-329.197509765625	1297.550537109375	20.86027717590341	-404.2828674316406	1340.30126953125	27.08857345581061	-299.4318237304688	
